<svg width="1440" height="1864" viewBox="0 0 1440 1864" fill="none" xmlns="http://www.w3.org/2000/svg">
<g clip-path="url(#clip0_402_210)">
<rect width="1440" height="1864" fill="#100F2E"/>
<g opacity="0.15">
<g filter="url(#filter0_f_402_210)">
<path d="M-185.479 59.6304C-347.787 37.3166 -504.08 156.843 -450.906 311.809C-418.665 405.767 -364.831 490.851 -293.73 560.222C-222.628 629.593 -136.244 681.315 -41.5198 711.231C53.2044 741.148 153.626 748.424 251.673 732.474C349.721 716.525 442.659 677.796 523.017 619.399C603.376 561.002 668.913 484.567 714.361 396.237C759.809 307.907 783.9 210.147 784.698 110.814C786.014 -53.0157 599.896 -116.842 453.028 -44.235L283.431 39.6094C196.296 82.6861 98.2441 98.6362 1.94909 85.3977L-185.479 59.6304Z" fill="url(#paint0_radial_402_210)"/>
</g>
<g filter="url(#filter1_f_402_210)">
<path d="M1194.57 700.854C1309.1 829.833 1515.94 841.249 1579.52 680.898C1618.07 583.675 1633.27 478.764 1623.9 374.599C1614.53 270.433 1580.85 169.918 1525.58 81.1333C1470.3 -7.65138 1394.96 -82.2294 1305.63 -136.606C1216.29 -190.983 1115.44 -223.641 1011.18 -231.957C906.927 -240.272 802.175 -224.012 705.346 -184.484C608.517 -144.956 522.313 -83.2629 453.661 -4.36268C340.434 125.767 445.59 304.251 612.769 346.74L809.249 396.675C906.201 421.316 993.532 474.471 1059.95 549.269L1194.57 700.854Z" fill="url(#paint1_radial_402_210)"/>
</g>
<g filter="url(#filter2_f_402_210)">
<mask id="path-3-inside-1_402_210" fill="white">
<path d="M1478.77 1563C1752.34 1600.61 2016.61 1396.39 1912.45 1140.65C1911.61 1138.61 1910.78 1136.57 1909.93 1134.54C1844.77 977.664 1738.96 841.005 1603.4 738.639C1467.84 636.274 1307.44 571.906 1138.72 552.169C970.003 532.431 799.075 558.037 643.549 626.349C488.022 694.661 353.524 803.207 253.913 940.802C154.301 1078.4 93.1807 1240.07 76.8486 1409.15C60.5166 1578.23 89.564 1748.6 160.998 1902.72C161.924 1904.72 162.858 1906.72 163.798 1908.71C281.653 2158.44 610.832 2102 768.221 1875.1L852.808 1753.15C960.115 1598.45 1145.23 1517.15 1331.74 1542.79L1478.77 1563Z"/>
</mask>
<path d="M1478.77 1563C1752.34 1600.61 2016.61 1396.39 1912.45 1140.65C1911.61 1138.61 1910.78 1136.57 1909.93 1134.54C1844.77 977.664 1738.96 841.005 1603.4 738.639C1467.84 636.274 1307.44 571.906 1138.72 552.169C970.003 532.431 799.075 558.037 643.549 626.349C488.022 694.661 353.524 803.207 253.913 940.802C154.301 1078.4 93.1807 1240.07 76.8486 1409.15C60.5166 1578.23 89.564 1748.6 160.998 1902.72C161.924 1904.72 162.858 1906.72 163.798 1908.71C281.653 2158.44 610.832 2102 768.221 1875.1L852.808 1753.15C960.115 1598.45 1145.23 1517.15 1331.74 1542.79L1478.77 1563Z" fill="url(#paint2_radial_402_210)"/>
<path d="M1478.77 1563C1752.34 1600.61 2016.61 1396.39 1912.45 1140.65C1911.61 1138.61 1910.78 1136.57 1909.93 1134.54C1844.77 977.664 1738.96 841.005 1603.4 738.639C1467.84 636.274 1307.44 571.906 1138.72 552.169C970.003 532.431 799.075 558.037 643.549 626.349C488.022 694.661 353.524 803.207 253.913 940.802C154.301 1078.4 93.1807 1240.07 76.8486 1409.15C60.5166 1578.23 89.564 1748.6 160.998 1902.72C161.924 1904.72 162.858 1906.72 163.798 1908.71C281.653 2158.44 610.832 2102 768.221 1875.1L852.808 1753.15C960.115 1598.45 1145.23 1517.15 1331.74 1542.79L1478.77 1563Z" stroke="black" stroke-width="2" mask="url(#path-3-inside-1_402_210)"/>
</g>
</g>
</g>
<defs>
<filter id="filter0_f_402_210" x="-561.49" y="-173.941" width="1446.19" height="1014.65" filterUnits="userSpaceOnUse" color-interpolation-filters="sRGB">
<feFlood flood-opacity="0" result="BackgroundImageFix"/>
<feBlend mode="normal" in="SourceGraphic" in2="BackgroundImageFix" result="shape"/>
<feGaussianBlur stdDeviation="50" result="effect1_foregroundBlur_402_210"/>
</filter>
<filter id="filter1_f_402_210" x="306.438" y="-334.073" width="1420.15" height="1233.47" filterUnits="userSpaceOnUse" color-interpolation-filters="sRGB">
<feFlood flood-opacity="0" result="BackgroundImageFix"/>
<feBlend mode="normal" in="SourceGraphic" in2="BackgroundImageFix" result="shape"/>
<feGaussianBlur stdDeviation="50" result="effect1_foregroundBlur_402_210"/>
</filter>
<filter id="filter2_f_402_210" x="-27.5771" y="445.698" width="2063.25" height="1726.52" filterUnits="userSpaceOnUse" color-interpolation-filters="sRGB">
<feFlood flood-opacity="0" result="BackgroundImageFix"/>
<feBlend mode="normal" in="SourceGraphic" in2="BackgroundImageFix" result="shape"/>
<feGaussianBlur stdDeviation="50" result="effect1_foregroundBlur_402_210"/>
</filter>
<radialGradient id="paint0_radial_402_210" cx="0" cy="0" r="1" gradientUnits="userSpaceOnUse" gradientTransform="translate(149.719 105.713) rotate(-75) scale(635)">
<stop stop-color="#FD71AE"/>
<stop offset="1" stop-color="#FD71AE" stop-opacity="0"/>
</radialGradient>
<radialGradient id="paint1_radial_402_210" cx="0" cy="0" r="1" gradientUnits="userSpaceOnUse" gradientTransform="translate(958.026 434.487) rotate(145.566) scale(668.56)">
<stop stop-color="#FFD436"/>
<stop offset="1" stop-color="#FFC801" stop-opacity="0"/>
</radialGradient>
<radialGradient id="paint2_radial_402_210" cx="0" cy="0" r="1" gradientUnits="userSpaceOnUse" gradientTransform="translate(1027.72 1500.99) rotate(105) scale(955.296)">
<stop stop-color="#49CCFA"/>
<stop offset="1" stop-color="#49CCFA" stop-opacity="0"/>
</radialGradient>
<clipPath id="clip0_402_210">
<rect width="1440" height="1864" fill="white"/>
</clipPath>
</defs>
</svg>
