<svg width="1440" height="960" viewBox="0 0 1440 960" fill="none" xmlns="http://www.w3.org/2000/svg">
<g clip-path="url(#clip0_205_723)">
<rect width="1440" height="960" fill="#100F2E"/>
<g opacity="0.15">
<g filter="url(#filter0_f_205_723)">
<path d="M-185.479 59.6304C-347.787 37.3166 -504.08 156.843 -450.905 311.809C-418.665 405.767 -364.83 490.851 -293.729 560.222C-222.628 629.593 -136.244 681.315 -41.5197 711.231C53.2045 741.148 153.626 748.424 251.674 732.474C349.721 716.525 442.659 677.796 523.017 619.399C603.376 561.002 668.913 484.567 714.361 396.237C759.809 307.907 783.9 210.147 784.698 110.814C786.014 -53.0157 599.896 -116.842 453.028 -44.235L283.431 39.6094C196.296 82.6861 98.2443 98.6362 1.94922 85.3977L-185.479 59.6304Z" fill="url(#paint0_radial_205_723)"/>
</g>
<g filter="url(#filter1_f_205_723)">
<path d="M1225.27 594.533C1354.68 695.011 1549.8 669.645 1581.23 508.854C1600.29 411.363 1596.21 310.761 1569.32 215.133C1542.43 119.506 1493.48 31.5208 1426.4 -41.7496C1359.33 -115.02 1276 -171.532 1183.11 -206.743C1090.22 -241.955 990.373 -254.883 891.583 -244.489C792.792 -234.095 697.817 -200.668 614.293 -146.897C530.769 -93.1251 461.025 -20.5078 410.668 65.1179C327.613 206.341 456.883 354.675 620.378 365.229L809.176 377.417C906.175 383.678 999.066 418.891 1075.84 478.504L1225.27 594.533Z" fill="url(#paint1_radial_205_723)"/>
</g>
<g filter="url(#filter2_f_205_723)">
<path d="M1362.92 1147.8C1525.22 1170.11 1681.52 1050.58 1628.34 895.617C1596.1 801.658 1542.27 716.574 1471.17 647.203C1400.07 577.833 1313.68 526.11 1218.96 496.194C1124.23 466.278 1023.81 459.002 925.764 474.951C827.717 490.9 734.779 529.63 654.42 588.027C574.062 646.424 508.525 722.859 463.077 811.189C417.629 899.518 393.537 997.279 392.739 1096.61C391.423 1260.44 577.542 1324.27 724.409 1251.66L894.007 1167.82C981.141 1124.74 1079.19 1108.79 1175.49 1122.03L1362.92 1147.8Z" fill="url(#paint2_radial_205_723)"/>
</g>
</g>
</g>
<defs>
<filter id="filter0_f_205_723" x="-561.489" y="-173.941" width="1446.19" height="1014.65" filterUnits="userSpaceOnUse" color-interpolation-filters="sRGB">
<feFlood flood-opacity="0" result="BackgroundImageFix"/>
<feBlend mode="normal" in="SourceGraphic" in2="BackgroundImageFix" result="shape"/>
<feGaussianBlur stdDeviation="50" result="effect1_foregroundBlur_205_723"/>
</filter>
<filter id="filter1_f_205_723" x="284.772" y="-347.974" width="1408.25" height="1102.08" filterUnits="userSpaceOnUse" color-interpolation-filters="sRGB">
<feFlood flood-opacity="0" result="BackgroundImageFix"/>
<feBlend mode="normal" in="SourceGraphic" in2="BackgroundImageFix" result="shape"/>
<feGaussianBlur stdDeviation="50" result="effect1_foregroundBlur_205_723"/>
</filter>
<filter id="filter2_f_205_723" x="292.732" y="366.713" width="1446.19" height="1014.65" filterUnits="userSpaceOnUse" color-interpolation-filters="sRGB">
<feFlood flood-opacity="0" result="BackgroundImageFix"/>
<feBlend mode="normal" in="SourceGraphic" in2="BackgroundImageFix" result="shape"/>
<feGaussianBlur stdDeviation="50" result="effect1_foregroundBlur_205_723"/>
</filter>
<radialGradient id="paint0_radial_205_723" cx="0" cy="0" r="1" gradientUnits="userSpaceOnUse" gradientTransform="translate(149.719 105.713) rotate(-75) scale(635)">
<stop stop-color="#FD71AE"/>
<stop offset="1" stop-color="#FD71AE" stop-opacity="0"/>
</radialGradient>
<radialGradient id="paint1_radial_205_723" cx="0" cy="0" r="1" gradientUnits="userSpaceOnUse" gradientTransform="translate(958.026 387.026) rotate(135) scale(635)">
<stop stop-color="#FFD436"/>
<stop offset="1" stop-color="#FFC801" stop-opacity="0"/>
</radialGradient>
<radialGradient id="paint2_radial_205_723" cx="0" cy="0" r="1" gradientUnits="userSpaceOnUse" gradientTransform="translate(1027.72 1101.71) rotate(105) scale(635)">
<stop stop-color="#49CCFA"/>
<stop offset="1" stop-color="#49CCFA" stop-opacity="0"/>
</radialGradient>
<clipPath id="clip0_205_723">
<rect width="1440" height="960" fill="white"/>
</clipPath>
</defs>
</svg>
