<svg width="1440" height="960" viewBox="0 0 1440 960" fill="none" xmlns="http://www.w3.org/2000/svg">
<g clip-path="url(#clip0_405_880)">
<rect width="1440" height="960" fill="#100F2E"/>
<g opacity="0.15">
<g filter="url(#filter0_f_405_880)">
<path d="M635.427 -59.1708C428.04 -87.682 228.34 65.0408 296.283 263.046C337.478 383.1 406.264 491.815 497.112 580.452C587.96 669.089 698.337 735.177 819.369 773.402C940.401 811.627 1068.71 820.924 1193.99 800.545C1319.27 780.166 1438.02 730.68 1540.7 656.064C1643.37 581.448 1727.11 483.784 1785.18 370.923C1843.25 258.061 1874.04 133.149 1875.06 6.22824C1876.74 -203.102 1638.93 -284.656 1451.27 -191.883L1201.33 -68.3197C1111.66 -23.9876 1010.75 -7.57271 911.645 -21.197L635.427 -59.1708Z" fill="url(#paint0_radial_405_880)"/>
</g>
<g filter="url(#filter1_f_405_880)">
<path d="M-331.589 364.461C-462.137 463.452 -488.135 658.485 -340.957 730.463C-251.721 774.104 -153.491 796.201 -54.1623 794.977C45.1663 793.754 142.822 769.244 230.957 723.418C319.091 677.592 395.245 611.728 453.297 531.12C511.349 450.512 549.68 357.409 565.209 259.294C580.738 161.18 573.032 60.79 542.71 -33.8052C512.388 -128.4 460.296 -214.562 390.622 -285.366C275.707 -402.141 98.9694 -315.668 46.4594 -160.476L-14.1773 18.7348C-45.3307 110.808 -103.386 191.42 -180.838 250.15L-331.589 364.461Z" fill="url(#paint1_radial_405_880)"/>
</g>
<g filter="url(#filter2_f_405_880)">
<path d="M1257.91 1147.8C1420.22 1170.11 1576.51 1050.58 1523.34 895.618C1491.1 801.66 1437.26 716.576 1366.16 647.205C1295.06 577.834 1208.67 526.112 1113.95 496.196C1019.23 466.279 918.805 459.003 820.757 474.953C722.71 490.902 629.772 529.631 549.413 588.028C469.055 646.425 403.518 722.86 358.07 811.19C312.622 899.52 288.531 997.28 287.733 1096.61C286.416 1260.44 472.535 1324.27 619.402 1251.66L789 1167.82C876.134 1124.74 974.187 1108.79 1070.48 1122.03L1257.91 1147.8Z" fill="url(#paint2_radial_405_880)"/>
</g>
</g>
</g>
<defs>
<filter id="filter0_f_405_880" x="182.759" y="-329.839" width="1792.31" height="1240.91" filterUnits="userSpaceOnUse" color-interpolation-filters="sRGB">
<feFlood flood-opacity="0" result="BackgroundImageFix"/>
<feBlend mode="normal" in="SourceGraphic" in2="BackgroundImageFix" result="shape"/>
<feGaussianBlur stdDeviation="50" result="effect1_foregroundBlur_405_880"/>
</filter>
<filter id="filter1_f_405_880" x="-540.84" y="-439.442" width="1213.86" height="1334.47" filterUnits="userSpaceOnUse" color-interpolation-filters="sRGB">
<feFlood flood-opacity="0" result="BackgroundImageFix"/>
<feBlend mode="normal" in="SourceGraphic" in2="BackgroundImageFix" result="shape"/>
<feGaussianBlur stdDeviation="50" result="effect1_foregroundBlur_405_880"/>
</filter>
<filter id="filter2_f_405_880" x="187.726" y="366.714" width="1446.19" height="1014.65" filterUnits="userSpaceOnUse" color-interpolation-filters="sRGB">
<feFlood flood-opacity="0" result="BackgroundImageFix"/>
<feBlend mode="normal" in="SourceGraphic" in2="BackgroundImageFix" result="shape"/>
<feGaussianBlur stdDeviation="50" result="effect1_foregroundBlur_405_880"/>
</filter>
<radialGradient id="paint0_radial_405_880" cx="0" cy="0" r="1" gradientUnits="userSpaceOnUse" gradientTransform="translate(1063.72 -0.289826) rotate(-75) scale(811.361)">
<stop stop-color="#FD71AE"/>
<stop offset="1" stop-color="#FD71AE" stop-opacity="0"/>
</radialGradient>
<radialGradient id="paint1_radial_405_880" cx="0" cy="0" r="1" gradientUnits="userSpaceOnUse" gradientTransform="translate(-61.9838 160.026) rotate(-120) scale(635)">
<stop stop-color="#FFD436"/>
<stop offset="1" stop-color="#FFC801" stop-opacity="0"/>
</radialGradient>
<radialGradient id="paint2_radial_405_880" cx="0" cy="0" r="1" gradientUnits="userSpaceOnUse" gradientTransform="translate(922.712 1101.71) rotate(105) scale(635)">
<stop stop-color="#49CCFA"/>
<stop offset="1" stop-color="#49CCFA" stop-opacity="0"/>
</radialGradient>
<clipPath id="clip0_405_880">
<rect width="1440" height="960" fill="white"/>
</clipPath>
</defs>
</svg>
