<svg width="201" height="200" viewBox="0 0 201 200" fill="none" xmlns="http://www.w3.org/2000/svg">
<g id="cicon" filter="url(#filter0_b_405_603)">
<rect x="0.666504" width="200" height="200" rx="25" fill="white" fill-opacity="0.1"/>
<g id="Group 3">
<g id="Group">
<g id="Group_2">
<path id="Vector" d="M127.728 89.8625H104.547C103.411 89.8625 102.493 90.7804 102.493 91.9169C102.493 93.0533 103.411 93.9712 104.547 93.9712H127.742C128.879 93.9712 129.796 93.0533 129.796 91.9169C129.796 90.795 128.864 89.8625 127.728 89.8625Z" fill="#FFE070"/>
</g>
</g>
<g id="Group_3">
<g id="Group_4">
<path id="Vector_2" d="M127.728 100.149H104.547C103.411 100.149 102.493 101.067 102.493 102.203C102.493 103.339 103.411 104.257 104.547 104.257H127.742C128.879 104.257 129.796 103.339 129.796 102.203C129.796 101.067 128.864 100.149 127.728 100.149Z" fill="#FFE070"/>
</g>
</g>
<g id="Group_5">
<g id="Group_6">
<path id="Vector_3" d="M127.728 110.435H104.547C103.411 110.435 102.493 111.353 102.493 112.489C102.493 113.626 103.411 114.544 104.547 114.544H127.742C128.879 114.544 129.796 113.626 129.796 112.489C129.796 111.353 128.864 110.435 127.728 110.435Z" fill="#FFE070"/>
</g>
</g>
<g id="Group_7">
<g id="Group_8">
<path id="Vector_4" d="M85.4895 85.8268C81.5265 85.8268 78.292 89.0613 78.292 93.0243C78.292 97.0018 81.5265 100.222 85.4895 100.222C89.4524 100.222 92.6869 96.9872 92.6869 93.0243C92.6869 89.0613 89.4524 85.8268 85.4895 85.8268ZM85.4895 96.1276C83.7848 96.1276 82.4007 94.7435 82.4007 93.0388C82.4152 91.3342 83.7994 89.95 85.4895 89.95C87.1941 89.95 88.5783 91.3342 88.5783 93.0388C88.5783 94.7435 87.1941 96.1276 85.4895 96.1276Z" fill="#FFE070"/>
</g>
</g>
<g id="Group_9">
<g id="Group_10">
<path id="Vector_5" d="M98.7343 116.205C98.5886 109.022 92.7024 103.252 85.4904 103.252C78.1763 103.252 72.2173 109.211 72.2173 116.525C72.2173 117.662 73.1352 118.579 74.2716 118.579H96.6945C96.7091 118.579 96.7091 118.579 96.7091 118.579C98.8654 118.579 98.7634 116.307 98.7343 116.205ZM76.5737 114.456C77.5061 110.391 81.1631 107.361 85.5049 107.361C89.8467 107.361 93.4892 110.406 94.4362 114.456H76.5737Z" fill="#FFE070"/>
</g>
</g>
<g id="Group_11">
<g id="Group_12">
<path id="Vector_6" d="M131.851 76.1087H111.294V74.0543C111.294 72.9179 110.376 72 109.239 72H92.7899C91.6535 72 90.7356 72.9179 90.7356 74.0543V76.1087H70.163C66.7683 76.1087 64 78.8769 64 82.2717V122.135C64 125.529 66.7683 128.298 70.163 128.298H131.837C135.232 128.298 138 125.529 138 122.135V82.2717C138.015 78.8769 135.246 76.1087 131.851 76.1087ZM94.8442 76.1087H107.185V80.2174H94.8442V76.1087ZM131.851 124.189H70.163C69.0266 124.189 68.1087 123.271 68.1087 122.135V82.2717C68.1087 81.1353 69.0266 80.2174 70.163 80.2174H90.721V82.2717C90.721 83.4081 91.6389 84.326 92.7753 84.326H109.225C110.361 84.326 111.279 83.4081 111.279 82.2717V80.2174H131.837C132.973 80.2174 133.891 81.1353 133.891 82.2717V122.135H133.906C133.906 123.271 132.988 124.189 131.851 124.189Z" fill="#FFE070"/>
</g>
</g>
</g>
</g>
<defs>
<filter id="filter0_b_405_603" x="-99.3335" y="-100" width="400" height="400" filterUnits="userSpaceOnUse" color-interpolation-filters="sRGB">
<feFlood flood-opacity="0" result="BackgroundImageFix"/>
<feGaussianBlur in="BackgroundImageFix" stdDeviation="50"/>
<feComposite in2="SourceAlpha" operator="in" result="effect1_backgroundBlur_405_603"/>
<feBlend mode="normal" in="SourceGraphic" in2="effect1_backgroundBlur_405_603" result="shape"/>
</filter>
</defs>
</svg>
