<svg width="200" height="200" viewBox="0 0 200 200" fill="none" xmlns="http://www.w3.org/2000/svg">
<g id="cicon" filter="url(#filter0_b_405_609)">
<rect width="200" height="200" rx="25" fill="white" fill-opacity="0.1"/>
<path id="case" fill-rule="evenodd" clip-rule="evenodd" d="M126.667 132H73.3333C71.9188 132 70.5624 131.438 69.5622 130.438C68.562 129.438 68 128.081 68 126.667V84C68 82.5855 68.562 81.229 69.5622 80.2288C70.5624 79.2286 71.9188 78.6667 73.3333 78.6667H86.6667V73.3333C86.6667 71.9188 87.2286 70.5623 88.2288 69.5621C89.229 68.5619 90.5855 68 92 68H108C109.414 68 110.771 68.5619 111.771 69.5621C112.771 70.5623 113.333 71.9188 113.333 73.3333V78.6667H126.667C128.081 78.6667 129.438 79.2286 130.438 80.2288C131.438 81.229 132 82.5855 132 84V126.667C132 128.081 131.438 129.438 130.438 130.438C129.438 131.438 128.081 132 126.667 132ZM108 73.3333H92V78.6667H108V73.3333ZM126.667 108H113.333C113.333 109.414 112.771 110.771 111.771 111.771C110.771 112.771 109.414 113.333 108 113.333H92C90.5855 113.333 89.229 112.771 88.2288 111.771C87.2286 110.771 86.6667 109.414 86.6667 108H73.3333V102.667H86.6667C86.6667 101.252 87.2286 99.8956 88.2288 98.8954C89.229 97.8952 90.5855 97.3333 92 97.3333H108C109.414 97.3333 110.771 97.8952 111.771 98.8954C112.771 99.8956 113.333 101.252 113.333 102.667H126.667V84H73.3333V126.667H126.667V108ZM108 105.333C108 104.626 107.719 103.948 107.219 103.448C106.719 102.948 106.041 102.667 105.333 102.667H94.6667C93.9594 102.667 93.281 102.948 92.7809 103.448C92.2808 103.948 92 104.626 92 105.333C92 106.041 92.2808 106.719 92.7809 107.219C93.281 107.719 93.9594 108 94.6667 108H105.333C106.041 108 106.719 107.719 107.219 107.219C107.719 106.719 108 106.041 108 105.333Z" fill="#64FF8D"/>
</g>
<defs>
<filter id="filter0_b_405_609" x="-100" y="-100" width="400" height="400" filterUnits="userSpaceOnUse" color-interpolation-filters="sRGB">
<feFlood flood-opacity="0" result="BackgroundImageFix"/>
<feGaussianBlur in="BackgroundImageFix" stdDeviation="50"/>
<feComposite in2="SourceAlpha" operator="in" result="effect1_backgroundBlur_405_609"/>
<feBlend mode="normal" in="SourceGraphic" in2="effect1_backgroundBlur_405_609" result="shape"/>
</filter>
</defs>
</svg>
