<svg width="1440" height="960" viewBox="0 0 1440 960" fill="none" xmlns="http://www.w3.org/2000/svg">
<g clip-path="url(#clip0_601_287)">
<rect width="1440" height="960" fill="#100F2E"/>
<g opacity="0.15">
<g filter="url(#filter0_f_601_287)">
<path d="M-185.479 -46.3694C-347.787 -68.6832 -504.08 50.8431 -450.906 205.809C-418.665 299.767 -364.831 384.852 -293.73 454.222C-222.628 523.593 -136.244 575.315 -41.5198 605.232C53.2044 635.148 153.626 642.424 251.673 626.475C349.721 610.525 442.659 571.796 523.017 513.399C603.376 455.002 668.913 378.567 714.361 290.237C759.809 201.907 783.9 104.147 784.698 4.81429C786.014 -159.015 599.896 -222.842 453.028 -150.235L283.431 -66.3904C196.296 -23.3136 98.2441 -7.36357 1.94909 -20.602L-185.479 -46.3694Z" fill="url(#paint0_radial_601_287)"/>
</g>
<g filter="url(#filter1_f_601_287)">
<path d="M1315.27 757.533C1444.68 858.011 1639.8 832.645 1671.23 671.853C1690.29 574.362 1686.21 473.76 1659.32 378.133C1632.43 282.505 1583.48 194.52 1516.4 121.25C1449.33 47.9796 1366 -8.5324 1273.11 -43.7436C1180.22 -78.9548 1080.37 -91.883 981.582 -81.489C882.791 -71.095 787.817 -37.6688 704.293 16.1029C620.769 69.8746 551.025 142.492 500.668 228.118C417.613 369.34 546.883 517.675 710.378 528.229L899.176 540.417C996.174 546.678 1089.07 581.891 1165.84 641.503L1315.27 757.533Z" fill="url(#paint1_radial_601_287)"/>
</g>
<g filter="url(#filter2_f_601_287)">
<path d="M997.911 1147.8C1160.22 1170.11 1316.51 1050.58 1263.34 895.617C1231.1 801.658 1177.26 716.574 1106.16 647.203C1035.06 577.833 948.676 526.11 853.951 496.194C759.227 466.278 658.806 459.002 560.758 474.951C462.711 490.9 369.773 529.63 289.414 588.027C209.056 646.424 143.519 722.859 98.0709 811.189C52.6228 899.518 28.5315 997.279 27.7335 1096.61C26.4173 1260.44 212.536 1324.27 359.403 1251.66L529.001 1167.82C616.135 1124.74 714.188 1108.79 810.483 1122.03L997.911 1147.8Z" fill="url(#paint2_radial_601_287)"/>
</g>
</g>
<g opacity="0.05" clip-path="url(#clip1_601_287)">
<mask id="path-4-outside-1_601_287" maskUnits="userSpaceOnUse" x="-298.203" y="656.688" width="1739" height="305" fill="black">
<rect fill="white" x="-298.203" y="656.688" width="1739" height="305"/>
<path fill-rule="evenodd" clip-rule="evenodd" d="M1050.57 893.726V729.755H1092.22V893.726H1050.57ZM1071.4 710.581C1063.9 710.581 1057.51 708.157 1052.22 703.308C1047.15 698.46 1044.62 692.068 1044.62 684.134C1044.62 676.2 1047.15 669.809 1052.22 664.96C1057.51 660.112 1063.9 657.688 1071.4 657.688C1079.11 657.688 1085.5 660.112 1090.57 664.96C1095.64 669.809 1098.17 676.2 1098.17 684.134C1098.17 692.068 1095.64 698.46 1090.57 703.308C1085.5 708.157 1079.11 710.581 1071.4 710.581ZM1165.49 764.136V893.725H1207.14V764.136H1250.12V729.755H1207.14V706.614C1207.14 700.002 1210.23 696.696 1216.4 696.696H1244.83V662.315H1201.85C1191.05 662.315 1182.24 665.731 1175.41 672.563C1168.8 679.175 1165.49 688.101 1165.49 699.341V729.755H1123.84V764.136H1165.49ZM1300.22 923.479V959.844H1403.36C1414.38 959.844 1423.2 956.428 1429.81 949.596C1436.42 942.984 1439.73 934.058 1439.73 922.818V729.756H1398.08V813.064C1398.08 828.271 1394.55 840.172 1387.5 848.767C1380.44 857.142 1370.53 861.329 1357.74 861.329C1346.5 861.329 1337.8 858.244 1331.63 852.073C1325.68 845.902 1322.7 836.646 1322.7 824.304V729.756H1281.05V827.61C1281.05 841.053 1283.69 852.955 1288.98 863.313C1294.27 873.671 1301.65 881.826 1311.13 887.776C1320.83 893.506 1332.07 896.371 1344.85 896.371C1354.77 896.371 1362.92 895.159 1369.31 892.735C1375.71 890.311 1380.77 887.225 1384.52 883.479C1388.27 879.732 1391.02 875.985 1392.79 872.239H1398.74V913.562C1398.74 920.174 1395.65 923.479 1389.48 923.479H1300.22ZM936.168 883.807C943 890.419 951.815 893.725 962.615 893.725H1008.9V859.344H977.16C970.989 859.344 967.904 856.038 967.904 849.427V764.135H1012.86V729.755H967.904V678.844H926.25V729.755H885.258V764.135H926.25V856.699C926.25 867.939 929.556 876.975 936.168 883.807ZM700.618 893.726V729.755H741.611V751.243H747.562C750.206 745.513 755.165 740.114 762.438 735.045C769.711 729.755 780.73 727.111 795.497 727.111C808.279 727.111 819.409 730.086 828.886 736.036C838.583 741.767 846.076 749.811 851.365 760.169C856.655 770.307 859.299 782.208 859.299 795.872V893.726H817.646V799.178C817.646 786.836 814.56 777.58 808.389 771.409C802.439 765.238 793.844 762.153 782.604 762.153C769.821 762.153 759.903 766.45 752.851 775.046C745.798 783.42 742.272 795.211 742.272 810.418V893.726H700.618ZM528.993 892.404C538.25 896.371 548.718 898.355 560.399 898.355C571.859 898.355 580.895 896.702 587.507 893.396C594.119 890.09 598.967 886.343 602.053 882.156C605.138 877.748 607.122 874.222 608.003 871.577H614.284V871.908C614.284 878.519 616.929 883.809 622.218 887.776C627.508 891.743 634.23 893.726 642.384 893.726H670.153V859.345H656.93C650.759 859.345 647.673 856.04 647.673 849.428V788.27C647.673 767.773 641.392 752.125 628.83 741.326C616.268 730.527 599.188 725.128 577.589 725.128C563.484 725.128 551.473 727.332 541.555 731.739C531.858 735.927 524.034 741.547 518.084 748.599C512.354 755.431 508.166 763.035 505.522 771.41L543.87 784.302C545.412 776.809 548.718 770.748 553.787 766.12C558.856 761.272 566.57 758.847 576.928 758.847C587.507 758.847 595.221 761.382 600.069 766.451C604.918 771.299 607.342 777.581 607.342 785.294V794.551H562.382C550.04 794.551 539.021 796.534 529.324 800.501C519.847 804.248 512.354 809.978 506.844 817.692C501.555 825.185 498.91 834.551 498.91 845.791C498.91 857.031 501.555 866.618 506.844 874.552C512.354 882.266 519.737 888.217 528.993 892.404ZM596.102 855.048C588.829 861.439 579.352 864.635 567.672 864.635C558.856 864.635 552.134 862.761 547.506 859.015C542.878 855.268 540.564 850.42 540.564 844.469C540.564 838.519 542.768 833.89 547.175 830.584C551.583 827.279 557.644 825.626 565.358 825.626H607.342V828.932C607.342 839.731 603.595 848.436 596.102 855.048ZM368.268 896.371C355.485 896.371 344.245 893.506 334.548 887.776C325.071 881.826 317.688 873.671 312.399 863.313C307.11 852.955 304.465 841.053 304.465 827.61V729.756H346.119V824.304C346.119 836.646 349.094 845.902 355.045 852.073C361.216 858.244 369.921 861.329 381.161 861.329C393.943 861.329 403.861 857.142 410.914 848.767C417.966 840.172 421.492 828.271 421.492 813.064V729.756H463.146V893.727H422.153V872.239H416.203C413.558 877.748 408.599 883.148 401.327 888.437C394.054 893.727 383.034 896.371 368.268 896.371ZM217.95 874.883V959.843H259.604V729.756H218.611V749.591H212.661C208.914 743.2 203.074 737.58 195.14 732.731C187.426 727.662 176.076 725.128 161.089 725.128C148.086 725.128 135.855 728.434 124.394 735.045C113.154 741.437 104.118 750.913 97.2863 763.476C90.4542 776.038 87.0381 791.245 87.0381 809.096V814.386C87.0381 832.237 90.4542 847.444 97.2863 860.007C104.118 872.569 113.154 882.156 124.394 888.768C135.634 895.159 147.866 898.355 161.089 898.355C171.007 898.355 179.272 897.142 185.883 894.718C192.715 892.514 198.225 889.649 202.413 886.123C206.6 882.376 209.796 878.63 212 874.883H217.95ZM205.718 849.758C197.344 857.913 186.655 861.99 173.652 861.99C160.869 861.99 150.18 857.913 141.585 849.758C132.99 841.384 128.692 829.262 128.692 813.394V810.088C128.692 794.22 132.99 782.209 141.585 774.054C150.18 765.679 160.869 761.492 173.652 761.492C186.434 761.492 197.123 765.679 205.718 774.054C214.314 782.209 218.611 794.22 218.611 810.088V813.394C218.611 829.262 214.314 841.384 205.718 849.758ZM-21.7054 898.355C-37.5736 898.355 -52.0091 895.049 -65.0122 888.437C-77.7948 881.825 -87.9328 872.238 -95.426 859.676C-102.919 847.114 -106.666 831.907 -106.666 814.055V809.427C-106.666 791.575 -102.919 776.368 -95.426 763.806C-87.9328 751.244 -77.7948 741.657 -65.0122 735.045C-52.0091 728.434 -37.5736 725.128 -21.7054 725.128C-6.05774 725.128 7.38608 727.883 18.626 733.392C29.8659 738.902 38.9019 746.506 45.734 756.203C52.7865 765.679 57.4147 776.479 59.6186 788.6L19.2872 797.195C18.4056 790.584 16.4221 784.633 13.3366 779.344C10.2512 774.054 5.84335 769.867 0.11319 766.781C-5.39655 763.696 -12.3389 762.153 -20.7137 762.153C-29.0885 762.153 -36.692 764.027 -43.5241 767.773C-50.1358 771.299 -55.4252 776.699 -59.3922 783.972C-63.1388 791.024 -65.0122 799.73 -65.0122 810.088V813.394C-65.0122 823.752 -63.1388 832.568 -59.3922 839.841C-55.4252 846.893 -50.1358 852.293 -43.5241 856.04C-36.692 859.566 -29.0885 861.329 -20.7137 861.329C-8.15146 861.329 1.32535 858.133 7.71667 851.742C14.3284 845.13 18.5158 836.535 20.2789 825.956L60.6104 835.543C57.7453 847.224 52.7865 857.913 45.734 867.61C38.9019 877.087 29.8659 884.58 18.626 890.09C7.38608 895.6 -6.05774 898.355 -21.7054 898.355ZM-267.12 892.404C-257.863 896.371 -247.395 898.355 -235.714 898.355C-224.254 898.355 -215.218 896.702 -208.606 893.396C-201.994 890.09 -197.146 886.343 -194.06 882.156C-190.975 877.748 -188.991 874.222 -188.11 871.577H-181.829V871.908C-181.829 878.519 -179.184 883.809 -173.895 887.776C-168.605 891.743 -161.883 893.726 -153.729 893.726H-125.96V859.345H-139.183C-145.354 859.345 -148.44 856.04 -148.44 849.428V788.27C-148.44 767.773 -154.721 752.125 -167.283 741.326C-179.845 730.527 -196.925 725.128 -218.524 725.128C-232.629 725.128 -244.64 727.332 -254.558 731.739C-264.255 735.927 -272.079 741.547 -278.029 748.599C-283.759 755.431 -287.947 763.035 -290.591 771.41L-252.243 784.302C-250.701 776.809 -247.395 770.748 -242.326 766.12C-237.257 761.272 -229.543 758.847 -219.185 758.847C-208.606 758.847 -200.893 761.382 -196.044 766.451C-191.195 771.299 -188.771 777.581 -188.771 785.294V794.551H-233.731C-246.073 794.551 -257.092 796.534 -266.789 800.501C-276.266 804.248 -283.759 809.978 -289.269 817.692C-294.558 825.185 -297.203 834.551 -297.203 845.791C-297.203 857.031 -294.558 866.618 -289.269 874.552C-283.759 882.266 -276.376 888.217 -267.12 892.404ZM-200.011 855.048C-207.284 861.439 -216.761 864.635 -228.441 864.635C-237.257 864.635 -243.979 862.761 -248.607 859.015C-253.235 855.268 -255.549 850.42 -255.549 844.469C-255.549 838.519 -253.345 833.89 -248.938 830.584C-244.53 827.279 -238.469 825.626 -230.755 825.626H-188.771V828.932C-188.771 839.731 -192.518 848.436 -200.011 855.048Z"/>
</mask>
<path d="M1050.57 729.755V728.755H1049.57V729.755H1050.57ZM1050.57 893.726H1049.57V894.726H1050.57V893.726ZM1092.22 729.755H1093.22V728.755H1092.22V729.755ZM1092.22 893.726V894.726H1093.22V893.726H1092.22ZM1052.22 703.308L1051.53 704.031L1051.54 704.038L1051.55 704.045L1052.22 703.308ZM1052.22 664.96L1051.55 664.223L1051.54 664.23L1051.53 664.238L1052.22 664.96ZM1090.57 664.96L1091.26 664.238L1090.57 664.96ZM1090.57 703.308L1089.88 702.586L1090.57 703.308ZM1165.49 893.725H1164.49V894.725H1165.49V893.725ZM1165.49 764.136H1166.49V763.136H1165.49V764.136ZM1207.14 893.725V894.725H1208.14V893.725H1207.14ZM1207.14 764.136V763.136H1206.14V764.136H1207.14ZM1250.12 764.136V765.136H1251.12V764.136H1250.12ZM1250.12 729.755H1251.12V728.755H1250.12V729.755ZM1207.14 729.755H1206.14V730.755H1207.14V729.755ZM1244.83 696.696V697.696H1245.83V696.696H1244.83ZM1244.83 662.315H1245.83V661.315H1244.83V662.315ZM1175.41 672.563L1176.11 673.271V673.271L1175.41 672.563ZM1165.49 729.755V730.755H1166.49V729.755H1165.49ZM1123.84 729.755V728.755H1122.84V729.755H1123.84ZM1123.84 764.136H1122.84V765.136H1123.84V764.136ZM1300.22 959.844H1299.22V960.844H1300.22V959.844ZM1300.22 923.479V922.479H1299.22V923.479H1300.22ZM1429.81 949.596L1429.1 948.889L1429.1 948.894L1429.09 948.9L1429.81 949.596ZM1439.73 729.756H1440.73V728.756H1439.73V729.756ZM1398.08 729.756V728.756H1397.08V729.756H1398.08ZM1387.5 848.767L1388.26 849.411L1388.27 849.401L1387.5 848.767ZM1331.63 852.073L1330.91 852.767L1330.91 852.774L1330.92 852.78L1331.63 852.073ZM1322.7 729.756H1323.7V728.756H1322.7V729.756ZM1281.05 729.756V728.756H1280.05V729.756H1281.05ZM1288.98 863.313L1288.09 863.768V863.768L1288.98 863.313ZM1311.13 887.776L1310.6 888.623L1310.61 888.63L1310.62 888.637L1311.13 887.776ZM1369.31 892.735L1368.96 891.8L1369.31 892.735ZM1384.52 883.479L1385.23 884.186L1384.52 883.479ZM1392.79 872.239V871.239H1392.15L1391.88 871.813L1392.79 872.239ZM1398.74 872.239H1399.74V871.239H1398.74V872.239ZM936.168 883.807L935.449 884.503L935.461 884.515L935.472 884.526L936.168 883.807ZM1008.9 893.725V894.725H1009.9V893.725H1008.9ZM1008.9 859.344H1009.9V858.344H1008.9V859.344ZM967.904 764.135V763.135H966.904V764.135H967.904ZM1012.86 764.135V765.135H1013.86V764.135H1012.86ZM1012.86 729.755H1013.86V728.755H1012.86V729.755ZM967.904 729.755H966.904V730.755H967.904V729.755ZM967.904 678.844H968.904V677.844H967.904V678.844ZM926.25 678.844V677.844H925.25V678.844H926.25ZM926.25 729.755V730.755H927.25V729.755H926.25ZM885.258 729.755V728.755H884.258V729.755H885.258ZM885.258 764.135H884.258V765.135H885.258V764.135ZM926.25 764.135H927.25V763.135H926.25V764.135ZM700.618 729.755V728.755H699.618V729.755H700.618ZM700.618 893.726H699.618V894.726H700.618V893.726ZM741.611 729.755H742.611V728.755H741.611V729.755ZM741.611 751.243H740.611V752.243H741.611V751.243ZM747.562 751.243V752.243H748.201L748.469 751.662L747.562 751.243ZM762.438 735.045L763.01 735.865L763.018 735.859L763.026 735.853L762.438 735.045ZM828.886 736.036L828.354 736.883L828.365 736.89L828.377 736.897L828.886 736.036ZM851.365 760.169L850.475 760.624L850.479 760.632L851.365 760.169ZM859.299 893.726V894.726H860.299V893.726H859.299ZM817.646 893.726H816.646V894.726H817.646V893.726ZM808.389 771.409L807.669 772.103L807.676 772.11L807.682 772.116L808.389 771.409ZM752.851 775.046L753.616 775.69L753.624 775.68L752.851 775.046ZM742.272 893.726V894.726H743.272V893.726H742.272ZM528.993 892.404L528.581 893.315L528.59 893.319L528.599 893.323L528.993 892.404ZM587.507 893.396L587.954 894.29L587.507 893.396ZM602.053 882.156L602.858 882.749L602.865 882.739L602.872 882.729L602.053 882.156ZM608.003 871.577V870.577H607.282L607.054 871.261L608.003 871.577ZM614.284 871.577H615.284V870.577H614.284V871.577ZM670.153 893.726V894.726H671.153V893.726H670.153ZM670.153 859.345H671.153V858.345H670.153V859.345ZM628.83 741.326L628.178 742.085L628.83 741.326ZM541.555 731.739L541.952 732.657L541.962 732.653L541.555 731.739ZM518.084 748.599L517.32 747.954L517.318 747.957L518.084 748.599ZM505.522 771.41L504.568 771.109L504.272 772.045L505.203 772.358L505.522 771.41ZM543.87 784.302L543.551 785.25L544.621 785.61L544.849 784.504L543.87 784.302ZM553.787 766.12L554.461 766.859L554.47 766.851L554.478 766.843L553.787 766.12ZM600.069 766.451L599.346 767.142L599.354 767.15L599.362 767.158L600.069 766.451ZM607.342 794.551V795.551H608.342V794.551H607.342ZM529.324 800.501L529.691 801.431L529.702 801.427L529.324 800.501ZM506.844 817.692L506.03 817.11L506.027 817.115L506.844 817.692ZM506.844 874.552L506.012 875.107L506.021 875.12L506.03 875.134L506.844 874.552ZM596.102 855.048L596.762 855.799L596.764 855.798L596.102 855.048ZM547.506 859.015L546.877 859.792V859.792L547.506 859.015ZM547.175 830.584L546.575 829.784L547.175 830.584ZM607.342 825.626H608.342V824.626H607.342V825.626ZM334.548 887.776L334.017 888.623L334.028 888.63L334.04 888.637L334.548 887.776ZM304.465 729.756V728.756H303.465V729.756H304.465ZM346.119 729.756H347.119V728.756H346.119V729.756ZM355.045 852.073L354.325 852.767L354.331 852.774L354.338 852.78L355.045 852.073ZM410.914 848.767L411.678 849.411L411.687 849.401L410.914 848.767ZM421.492 729.756V728.756H420.492V729.756H421.492ZM463.146 729.756H464.146V728.756H463.146V729.756ZM463.146 893.727V894.727H464.146V893.727H463.146ZM422.153 893.727H421.153V894.727H422.153V893.727ZM422.153 872.239H423.153V871.239H422.153V872.239ZM416.203 872.239V871.239H415.574L415.301 871.806L416.203 872.239ZM217.95 959.843H216.95V960.843H217.95V959.843ZM217.95 874.883H218.95V873.883H217.95V874.883ZM259.604 959.843V960.843H260.604V959.843H259.604ZM259.604 729.756H260.604V728.756H259.604V729.756ZM218.611 729.756V728.756H217.611V729.756H218.611ZM218.611 749.591V750.591H219.611V749.591H218.611ZM212.661 749.591L211.798 750.097L212.088 750.591H212.661V749.591ZM195.14 732.731L194.59 733.567L194.604 733.576L194.618 733.584L195.14 732.731ZM124.394 735.045L124.889 735.915L124.894 735.911L124.394 735.045ZM97.2863 763.476L98.1648 763.953V763.953L97.2863 763.476ZM97.2863 860.007L98.1648 859.529L97.2863 860.007ZM124.394 888.768L123.887 889.629L123.894 889.633L123.9 889.637L124.394 888.768ZM185.883 894.718L185.576 893.766L185.557 893.772L185.539 893.779L185.883 894.718ZM202.413 886.123L203.057 886.888L203.068 886.878L203.079 886.868L202.413 886.123ZM212 874.883V873.883H211.428L211.138 874.376L212 874.883ZM205.718 849.758L206.416 850.475L206.416 850.475L205.718 849.758ZM141.585 849.758L140.887 850.475L140.896 850.484L141.585 849.758ZM141.585 774.054L142.273 774.78L142.283 774.771L141.585 774.054ZM205.718 774.054L205.02 774.771L205.03 774.78L205.718 774.054ZM-65.0122 888.437L-65.4716 889.325L-65.4654 889.328L-65.0122 888.437ZM-95.426 859.676L-96.2849 860.188L-95.426 859.676ZM-95.426 763.806L-94.5672 764.318L-95.426 763.806ZM-65.0122 735.045L-65.4654 734.154L-65.4716 734.157L-65.0122 735.045ZM18.626 733.392L19.0662 732.494L18.626 733.392ZM45.734 756.203L44.9165 756.779L44.924 756.789L44.9318 756.8L45.734 756.203ZM59.6186 788.6L59.8271 789.578L60.7761 789.376L60.6025 788.421L59.6186 788.6ZM19.2872 797.195L18.2959 797.327L18.4388 798.399L19.4956 798.173L19.2872 797.195ZM13.3366 779.344L14.2004 778.84V778.84L13.3366 779.344ZM0.11319 766.781L-0.375427 767.654L-0.368195 767.658L-0.360901 767.662L0.11319 766.781ZM-43.5241 767.773L-43.0535 768.656L-43.0433 768.65L-43.5241 767.773ZM-59.3922 783.972L-60.2701 783.493L-60.2753 783.503L-59.3922 783.972ZM-59.3922 839.841L-60.2812 840.299L-60.2728 840.315L-60.2638 840.331L-59.3922 839.841ZM-43.5241 856.04L-44.0171 856.91L-44.0001 856.919L-43.9827 856.928L-43.5241 856.04ZM7.71667 851.742L8.42377 852.449L7.71667 851.742ZM20.2789 825.956L20.5102 824.983L19.4686 824.736L19.2925 825.792L20.2789 825.956ZM60.6104 835.543L61.5816 835.781L61.8215 834.803L60.8416 834.57L60.6104 835.543ZM45.734 867.61L44.9253 867.022L44.9228 867.025L45.734 867.61ZM18.626 890.09L18.1859 889.192L18.626 890.09ZM-267.12 892.404L-267.532 893.315L-267.523 893.319L-267.514 893.323L-267.12 892.404ZM-208.606 893.396L-208.159 894.29L-208.606 893.396ZM-194.06 882.156L-193.255 882.749L-193.248 882.739L-193.241 882.729L-194.06 882.156ZM-188.11 871.577V870.577H-188.831L-189.059 871.261L-188.11 871.577ZM-181.829 871.577H-180.829V870.577H-181.829V871.577ZM-125.96 893.726V894.726H-124.96V893.726H-125.96ZM-125.96 859.345H-124.96V858.345H-125.96V859.345ZM-167.283 741.326L-167.935 742.085L-167.283 741.326ZM-254.558 731.739L-254.161 732.657L-254.151 732.653L-254.558 731.739ZM-278.029 748.599L-278.793 747.954L-278.795 747.957L-278.029 748.599ZM-290.591 771.41L-291.545 771.109L-291.841 772.045L-290.91 772.358L-290.591 771.41ZM-252.243 784.302L-252.562 785.25L-251.492 785.61L-251.264 784.504L-252.243 784.302ZM-242.326 766.12L-241.652 766.859L-241.643 766.851L-241.635 766.843L-242.326 766.12ZM-196.044 766.451L-196.767 767.142L-196.759 767.15L-196.751 767.158L-196.044 766.451ZM-188.771 794.551V795.551H-187.771V794.551H-188.771ZM-266.789 800.501L-266.422 801.431L-266.411 801.427L-266.789 800.501ZM-289.269 817.692L-290.083 817.11L-290.086 817.115L-289.269 817.692ZM-289.269 874.552L-290.101 875.107L-290.092 875.12L-290.083 875.134L-289.269 874.552ZM-200.011 855.048L-199.351 855.799L-199.349 855.798L-200.011 855.048ZM-248.607 859.015L-247.978 858.238L-247.978 858.238L-248.607 859.015ZM-248.938 830.584L-249.538 829.784H-249.538L-248.938 830.584ZM-188.771 825.626H-187.771V824.626H-188.771V825.626ZM1049.57 729.755V893.726H1051.57V729.755H1049.57ZM1092.22 728.755H1050.57V730.755H1092.22V728.755ZM1093.22 893.726V729.755H1091.22V893.726H1093.22ZM1050.57 894.726H1092.22V892.726H1050.57V894.726ZM1051.55 704.045C1057.03 709.071 1063.67 711.581 1071.4 711.581V709.581C1064.14 709.581 1057.99 707.243 1052.9 702.571L1051.55 704.045ZM1043.62 684.134C1043.62 692.302 1046.24 698.968 1051.53 704.031L1052.91 702.586C1048.07 697.951 1045.62 691.835 1045.62 684.134H1043.62ZM1051.53 664.238C1046.24 669.301 1043.62 675.967 1043.62 684.134H1045.62C1045.62 676.434 1048.07 670.317 1052.91 665.683L1051.53 664.238ZM1071.4 656.688C1063.67 656.688 1057.03 659.198 1051.55 664.223L1052.9 665.698C1057.99 661.026 1064.14 658.688 1071.4 658.688V656.688ZM1091.26 664.238C1085.99 659.193 1079.34 656.688 1071.4 656.688V658.688C1078.88 658.688 1085.02 661.031 1089.88 665.683L1091.26 664.238ZM1099.17 684.134C1099.17 675.967 1096.56 669.301 1091.26 664.238L1089.88 665.683C1094.72 670.317 1097.17 676.434 1097.17 684.134H1099.17ZM1091.26 704.031C1096.56 698.968 1099.17 692.302 1099.17 684.134H1097.17C1097.17 691.835 1094.72 697.951 1089.88 702.586L1091.26 704.031ZM1071.4 711.581C1079.34 711.581 1085.99 709.076 1091.26 704.031L1089.88 702.586C1085.02 707.238 1078.88 709.581 1071.4 709.581V711.581ZM1166.49 893.725V764.136H1164.49V893.725H1166.49ZM1207.14 892.725H1165.49V894.725H1207.14V892.725ZM1206.14 764.136V893.725H1208.14V764.136H1206.14ZM1250.12 763.136H1207.14V765.136H1250.12V763.136ZM1249.12 729.755V764.136H1251.12V729.755H1249.12ZM1207.14 730.755H1250.12V728.755H1207.14V730.755ZM1206.14 706.614V729.755H1208.14V706.614H1206.14ZM1216.4 695.696C1213.14 695.696 1210.52 696.572 1208.73 698.493C1206.95 700.401 1206.14 703.17 1206.14 706.614H1208.14C1208.14 703.446 1208.88 701.256 1210.19 699.858C1211.48 698.473 1213.49 697.696 1216.4 697.696V695.696ZM1244.83 695.696H1216.4V697.696H1244.83V695.696ZM1243.83 662.315V696.696H1245.83V662.315H1243.83ZM1201.85 663.315H1244.83V661.315H1201.85V663.315ZM1176.11 673.271C1182.74 666.649 1191.29 663.315 1201.85 663.315V661.315C1190.82 661.315 1181.74 664.814 1174.7 671.856L1176.11 673.271ZM1166.49 699.341C1166.49 688.309 1169.73 679.658 1176.11 673.271L1174.7 671.856C1167.86 678.693 1164.49 687.893 1164.49 699.341H1166.49ZM1166.49 729.755V699.341H1164.49V729.755H1166.49ZM1123.84 730.755H1165.49V728.755H1123.84V730.755ZM1124.84 764.136V729.755H1122.84V764.136H1124.84ZM1165.49 763.136H1123.84V765.136H1165.49V763.136ZM1301.22 959.844V923.479H1299.22V959.844H1301.22ZM1403.36 958.844H1300.22V960.844H1403.36V958.844ZM1429.09 948.9C1422.7 955.507 1414.16 958.844 1403.36 958.844V960.844C1414.61 960.844 1423.7 957.349 1430.53 950.291L1429.09 948.9ZM1438.73 922.818C1438.73 933.85 1435.49 942.501 1429.1 948.889L1430.52 950.303C1437.35 943.467 1440.73 934.266 1440.73 922.818H1438.73ZM1438.73 729.756V922.818H1440.73V729.756H1438.73ZM1398.08 730.756H1439.73V728.756H1398.08V730.756ZM1399.08 813.064V729.756H1397.08V813.064H1399.08ZM1388.27 849.401C1395.51 840.571 1399.08 828.418 1399.08 813.064H1397.08C1397.08 828.124 1393.58 839.772 1386.72 848.133L1388.27 849.401ZM1357.74 862.329C1370.77 862.329 1380.99 858.051 1388.26 849.411L1386.73 848.123C1379.9 856.233 1370.29 860.329 1357.74 860.329V862.329ZM1330.92 852.78C1337.33 859.188 1346.32 862.329 1357.74 862.329V860.329C1346.69 860.329 1338.27 857.3 1332.33 851.366L1330.92 852.78ZM1321.7 824.304C1321.7 836.791 1324.71 846.341 1330.91 852.767L1332.35 851.379C1326.64 845.463 1323.7 836.5 1323.7 824.304H1321.7ZM1321.7 729.756V824.304H1323.7V729.756H1321.7ZM1281.05 730.756H1322.7V728.756H1281.05V730.756ZM1282.05 827.61V729.756H1280.05V827.61H1282.05ZM1289.87 862.858C1284.67 852.661 1282.05 840.92 1282.05 827.61H1280.05C1280.05 841.187 1282.72 853.248 1288.09 863.768L1289.87 862.858ZM1311.66 886.929C1302.35 881.079 1295.08 873.062 1289.87 862.858L1288.09 863.768C1293.46 874.28 1300.96 882.573 1310.6 888.623L1311.66 886.929ZM1344.85 895.371C1332.22 895.371 1321.16 892.543 1311.64 886.915L1310.62 888.637C1320.49 894.47 1331.91 897.371 1344.85 897.371V895.371ZM1368.96 891.8C1362.72 894.167 1354.7 895.371 1344.85 895.371V897.371C1354.84 897.371 1363.13 896.152 1369.67 893.67L1368.96 891.8ZM1383.81 882.772C1380.19 886.394 1375.26 889.412 1368.96 891.8L1369.67 893.67C1376.16 891.21 1381.36 888.057 1385.23 884.186L1383.81 882.772ZM1391.88 871.813C1390.18 875.43 1387.5 879.085 1383.81 882.772L1385.23 884.186C1389.04 880.379 1391.87 876.54 1393.69 872.665L1391.88 871.813ZM1398.74 871.239H1392.79V873.239H1398.74V871.239ZM1399.74 913.562V872.239H1397.74V913.562H1399.74ZM1389.48 924.479C1392.74 924.479 1395.36 923.604 1397.15 921.682C1398.93 919.774 1399.74 917.005 1399.74 913.562H1397.74C1397.74 916.73 1397 918.92 1395.69 920.318C1394.4 921.702 1392.39 922.479 1389.48 922.479V924.479ZM1300.22 924.479H1389.48V922.479H1300.22V924.479ZM962.615 892.725C952.037 892.725 943.483 889.495 936.863 883.089L935.472 884.526C942.517 891.343 951.594 894.725 962.615 894.725V892.725ZM1008.9 892.725H962.615V894.725H1008.9V892.725ZM1007.9 859.344V893.725H1009.9V859.344H1007.9ZM977.16 860.344H1008.9V858.344H977.16V860.344ZM966.904 849.427C966.904 852.87 967.706 855.639 969.487 857.547C971.28 859.468 973.902 860.344 977.16 860.344V858.344C974.247 858.344 972.241 857.567 970.949 856.182C969.645 854.785 968.904 852.595 968.904 849.427H966.904ZM966.904 764.135V849.427H968.904V764.135H966.904ZM1012.86 763.135H967.904V765.135H1012.86V763.135ZM1011.86 729.755V764.135H1013.86V729.755H1011.86ZM967.904 730.755H1012.86V728.755H967.904V730.755ZM966.904 678.844V729.755H968.904V678.844H966.904ZM926.25 679.844H967.904V677.844H926.25V679.844ZM927.25 729.755V678.844H925.25V729.755H927.25ZM885.258 730.755H926.25V728.755H885.258V730.755ZM886.258 764.135V729.755H884.258V764.135H886.258ZM926.25 763.135H885.258V765.135H926.25V763.135ZM927.25 856.699V764.135H925.25V856.699H927.25ZM936.886 883.112C930.488 876.5 927.25 867.73 927.25 856.699H925.25C925.25 868.148 928.625 877.451 935.449 884.503L936.886 883.112ZM699.618 729.755V893.726H701.618V729.755H699.618ZM741.611 728.755H700.618V730.755H741.611V728.755ZM742.611 751.243V729.755H740.611V751.243H742.611ZM747.562 750.243H741.611V752.243H747.562V750.243ZM761.866 734.224C754.504 739.356 749.397 744.88 746.654 750.824L748.469 751.662C751.016 746.146 755.827 740.872 763.01 735.865L761.866 734.224ZM795.497 726.111C780.643 726.111 769.372 728.765 761.85 734.236L763.026 735.853C770.05 730.745 780.818 728.111 795.497 728.111V726.111ZM829.417 735.19C819.76 729.125 808.44 726.111 795.497 726.111V728.111C808.118 728.111 819.058 731.046 828.354 736.883L829.417 735.19ZM852.256 759.714C846.883 749.193 839.26 741.005 829.394 735.175L828.377 736.897C837.905 742.528 845.269 750.429 850.475 760.624L852.256 759.714ZM860.299 795.872C860.299 782.078 857.629 770.013 852.252 759.707L850.479 760.632C855.68 770.602 858.299 782.338 858.299 795.872H860.299ZM860.299 893.726V795.872H858.299V893.726H860.299ZM817.646 894.726H859.299V892.726H817.646V894.726ZM816.646 799.178V893.726H818.646V799.178H816.646ZM807.682 772.116C813.599 778.033 816.646 786.991 816.646 799.178H818.646C818.646 786.682 815.521 777.127 809.096 770.702L807.682 772.116ZM782.604 763.153C793.66 763.153 801.961 766.183 807.669 772.103L809.109 770.715C802.917 764.293 794.027 761.153 782.604 761.153V763.153ZM753.624 775.68C760.457 767.352 770.07 763.153 782.604 763.153V761.153C769.572 761.153 759.35 765.548 752.078 774.411L753.624 775.68ZM743.272 810.418C743.272 795.356 746.765 783.825 753.616 775.69L752.086 774.401C744.832 783.016 741.272 795.067 741.272 810.418H743.272ZM743.272 893.726V810.418H741.272V893.726H743.272ZM700.618 894.726H742.272V892.726H700.618V894.726ZM560.399 897.355C548.832 897.355 538.501 895.391 529.387 891.485L528.599 893.323C537.998 897.351 548.604 899.355 560.399 899.355V897.355ZM587.06 892.501C580.642 895.71 571.781 897.355 560.399 897.355V899.355C571.937 899.355 581.148 897.693 587.954 894.29L587.06 892.501ZM601.247 881.563C598.287 885.581 593.586 889.238 587.06 892.501L587.954 894.29C594.651 890.941 599.647 887.106 602.858 882.749L601.247 881.563ZM607.054 871.261C606.22 873.764 604.305 877.195 601.233 881.582L602.872 882.729C605.971 878.301 608.023 874.679 608.952 871.893L607.054 871.261ZM614.284 870.577H608.003V872.577H614.284V870.577ZM615.284 871.908V871.577H613.284V871.908H615.284ZM622.818 886.976C617.781 883.198 615.284 878.205 615.284 871.908H613.284C613.284 878.834 616.077 884.42 621.618 888.576L622.818 886.976ZM642.384 892.726C634.395 892.726 627.898 890.785 622.818 886.976L621.618 888.576C627.118 892.7 634.065 894.726 642.384 894.726V892.726ZM670.153 892.726H642.384V894.726H670.153V892.726ZM669.153 859.345V893.726H671.153V859.345H669.153ZM656.93 860.345H670.153V858.345H656.93V860.345ZM646.673 849.428C646.673 852.871 647.475 855.64 649.256 857.548C651.049 859.469 653.672 860.345 656.93 860.345V858.345C654.017 858.345 652.011 857.568 650.719 856.184C649.414 854.786 648.673 852.596 648.673 849.428H646.673ZM646.673 788.27V849.428H648.673V788.27H646.673ZM628.178 742.085C640.468 752.65 646.673 767.99 646.673 788.27H648.673C648.673 767.557 642.316 751.601 629.482 740.568L628.178 742.085ZM577.589 726.128C599.022 726.128 615.846 731.484 628.178 742.085L629.482 740.568C616.689 729.571 599.353 724.128 577.589 724.128V726.128ZM541.962 732.653C551.719 728.317 563.584 726.128 577.589 726.128V724.128C563.384 724.128 551.227 726.347 541.149 730.826L541.962 732.653ZM518.848 749.244C524.685 742.326 532.376 736.792 541.952 732.657L541.159 730.821C531.34 735.061 523.383 740.768 517.32 747.954L518.848 749.244ZM506.475 771.711C509.08 763.463 513.203 755.975 518.85 749.242L517.318 747.957C511.505 754.888 507.253 762.607 504.568 771.109L506.475 771.711ZM544.188 783.355L505.84 770.462L505.203 772.358L543.551 785.25L544.188 783.355ZM553.113 765.382C547.87 770.168 544.47 776.426 542.89 784.101L544.849 784.504C546.354 777.193 549.566 771.329 554.461 766.859L553.113 765.382ZM576.928 757.847C566.433 757.847 558.423 760.302 553.096 765.398L554.478 766.843C559.289 762.241 566.706 759.847 576.928 759.847V757.847ZM600.792 765.76C595.677 760.412 587.642 757.847 576.928 757.847V759.847C587.372 759.847 594.764 762.352 599.346 767.142L600.792 765.76ZM608.342 785.294C608.342 777.352 605.836 770.804 600.776 765.744L599.362 767.158C603.999 771.795 606.342 777.81 606.342 785.294H608.342ZM608.342 794.551V785.294H606.342V794.551H608.342ZM562.382 795.551H607.342V793.551H562.382V795.551ZM529.702 801.427C539.26 797.517 550.148 795.551 562.382 795.551V793.551C549.933 793.551 538.782 795.552 528.945 799.576L529.702 801.427ZM507.658 818.273C513.047 810.728 520.38 805.112 529.691 801.431L528.956 799.571C519.314 803.383 511.66 809.228 506.03 817.11L507.658 818.273ZM499.91 845.791C499.91 834.711 502.515 825.558 507.661 818.268L506.027 817.115C500.594 824.812 497.91 834.392 497.91 845.791H499.91ZM507.676 873.998C502.515 866.255 499.91 856.87 499.91 845.791H497.91C497.91 857.193 500.595 866.981 506.012 875.107L507.676 873.998ZM529.405 891.493C520.298 887.373 513.058 881.531 507.658 873.971L506.03 875.134C511.65 883.001 519.176 889.06 528.581 893.315L529.405 891.493ZM567.672 865.635C579.543 865.635 589.271 862.382 596.762 855.799L595.442 854.297C588.388 860.496 579.162 863.635 567.672 863.635V865.635ZM546.877 859.792C551.751 863.738 558.733 865.635 567.672 865.635V863.635C558.979 863.635 552.517 861.785 548.135 858.238L546.877 859.792ZM539.564 844.469C539.564 850.722 542.014 855.856 546.877 859.792L548.135 858.238C543.741 854.681 541.564 850.118 541.564 844.469H539.564ZM546.575 829.784C541.893 833.296 539.564 838.233 539.564 844.469H541.564C541.564 838.804 543.642 834.485 547.775 831.384L546.575 829.784ZM565.358 824.626C557.512 824.626 551.213 826.306 546.575 829.784L547.775 831.384C551.953 828.251 557.776 826.626 565.358 826.626V824.626ZM607.342 824.626H565.358V826.626H607.342V824.626ZM608.342 828.932V825.626H606.342V828.932H608.342ZM596.764 855.798C604.491 848.98 608.342 839.992 608.342 828.932H606.342C606.342 839.47 602.7 847.893 595.44 854.298L596.764 855.798ZM334.04 888.637C343.911 894.47 355.331 897.371 368.268 897.371V895.371C355.64 895.371 344.58 892.543 335.057 886.915L334.04 888.637ZM311.508 863.768C316.876 874.28 324.381 882.573 334.017 888.623L335.08 886.929C325.762 881.079 318.5 873.062 313.29 862.858L311.508 863.768ZM303.465 827.61C303.465 841.187 306.137 853.248 311.508 863.768L313.29 862.858C308.083 852.661 305.465 840.92 305.465 827.61H303.465ZM303.465 729.756V827.61H305.465V729.756H303.465ZM346.119 728.756H304.465V730.756H346.119V728.756ZM347.119 824.304V729.756H345.119V824.304H347.119ZM355.764 851.379C350.06 845.463 347.119 836.5 347.119 824.304H345.119C345.119 836.791 348.129 846.342 354.325 852.767L355.764 851.379ZM381.161 860.329C370.106 860.329 361.685 857.3 355.752 851.366L354.338 852.78C360.746 859.188 369.736 862.329 381.161 862.329V860.329ZM410.149 848.123C403.319 856.233 393.703 860.329 381.161 860.329V862.329C394.184 862.329 404.403 858.051 411.678 849.411L410.149 848.123ZM420.492 813.064C420.492 828.124 417 839.772 410.14 848.133L411.687 849.401C418.932 840.571 422.492 828.418 422.492 813.064H420.492ZM420.492 729.756V813.064H422.492V729.756H420.492ZM463.146 728.756H421.492V730.756H463.146V728.756ZM464.146 893.727V729.756H462.146V893.727H464.146ZM422.153 894.727H463.146V892.727H422.153V894.727ZM421.153 872.239V893.727H423.153V872.239H421.153ZM416.203 873.239H422.153V871.239H416.203V873.239ZM401.915 889.246C409.263 883.902 414.362 878.385 417.104 872.671L415.301 871.806C412.754 877.112 407.936 882.394 400.738 887.629L401.915 889.246ZM368.268 897.371C383.122 897.371 394.392 894.717 401.915 889.246L400.738 887.629C393.715 892.737 382.947 895.371 368.268 895.371V897.371ZM218.95 959.843V874.883H216.95V959.843H218.95ZM259.604 958.843H217.95V960.843H259.604V958.843ZM258.604 729.756V959.843H260.604V729.756H258.604ZM218.611 730.756H259.604V728.756H218.611V730.756ZM219.611 749.591V729.756H217.611V749.591H219.611ZM212.661 750.591H218.611V748.591H212.661V750.591ZM194.618 733.584C202.447 738.369 208.153 743.879 211.798 750.097L213.523 749.085C209.675 742.52 203.701 736.791 195.661 731.878L194.618 733.584ZM161.089 726.128C175.991 726.128 187.113 728.653 194.59 733.567L195.689 731.895C187.739 726.671 176.161 724.128 161.089 724.128V726.128ZM124.894 735.911C136.205 729.386 148.265 726.128 161.089 726.128V724.128C147.908 724.128 135.504 727.481 123.895 734.179L124.894 735.911ZM98.1648 763.953C104.918 751.537 113.828 742.204 124.889 735.915L123.9 734.176C112.481 740.669 103.319 750.29 96.4078 762.998L98.1648 763.953ZM88.0381 809.096C88.0381 791.371 91.4299 776.337 98.1648 763.953L96.4078 762.998C89.4785 775.739 86.0381 791.119 86.0381 809.096H88.0381ZM88.0381 814.386V809.096H86.0381V814.386H88.0381ZM98.1648 859.529C91.4299 847.145 88.0381 832.111 88.0381 814.386H86.0381C86.0381 832.364 89.4785 847.743 96.4078 860.484L98.1648 859.529ZM124.901 887.906C113.833 881.395 104.919 871.948 98.1648 859.529L96.4078 860.484C103.318 873.19 112.476 882.917 123.887 889.629L124.901 887.906ZM161.089 897.355C148.035 897.355 135.974 894.202 124.889 887.898L123.9 889.637C135.294 896.116 147.697 899.355 161.089 899.355V897.355ZM185.539 893.779C179.073 896.15 170.934 897.355 161.089 897.355V899.355C171.08 899.355 179.47 898.135 186.227 895.657L185.539 893.779ZM201.768 885.358C197.706 888.779 192.321 891.591 185.576 893.766L186.19 895.67C193.109 893.438 198.744 890.519 203.057 886.888L201.768 885.358ZM211.138 874.376C208.999 878.012 205.877 881.681 201.746 885.378L203.079 886.868C207.322 883.072 210.592 879.247 212.861 875.39L211.138 874.376ZM217.95 873.883H212V875.883H217.95V873.883ZM173.652 862.99C186.883 862.99 197.833 858.832 206.416 850.475L205.021 849.042C196.854 856.993 186.426 860.99 173.652 860.99V862.99ZM140.896 850.484C149.693 858.829 160.635 862.99 173.652 862.99V860.99C161.103 860.99 150.667 856.996 142.273 849.033L140.896 850.484ZM127.692 813.394C127.692 829.441 132.042 841.857 140.887 850.475L142.283 849.042C133.937 840.911 129.692 829.083 129.692 813.394H127.692ZM127.692 810.088V813.394H129.692V810.088H127.692ZM140.896 773.329C132.042 781.73 127.692 794.043 127.692 810.088H129.692C129.692 794.398 133.938 782.688 142.273 774.78L140.896 773.329ZM173.652 760.492C160.627 760.492 149.682 764.769 140.887 773.338L142.283 774.771C150.678 766.59 161.111 762.492 173.652 762.492V760.492ZM206.416 773.338C197.621 764.769 186.676 760.492 173.652 760.492V762.492C186.192 762.492 196.625 766.59 205.02 774.771L206.416 773.338ZM219.611 810.088C219.611 794.043 215.262 781.73 206.407 773.329L205.03 774.78C213.366 782.688 217.611 794.398 217.611 810.088H219.611ZM219.611 813.394V810.088H217.611V813.394H219.611ZM206.416 850.475C215.261 841.857 219.611 829.441 219.611 813.394H217.611C217.611 829.083 213.366 840.911 205.02 849.042L206.416 850.475ZM-65.4654 889.328C-52.3099 896.018 -37.717 899.355 -21.7054 899.355V897.355C-37.4301 897.355 -51.7084 894.08 -64.5589 887.546L-65.4654 889.328ZM-96.2849 860.188C-88.6978 872.908 -78.4226 882.626 -65.4716 889.325L-64.5527 887.549C-77.167 881.024 -87.1678 871.569 -94.5672 859.164L-96.2849 860.188ZM-107.666 814.055C-107.666 832.047 -103.889 847.44 -96.2849 860.188L-94.5672 859.164C-101.95 846.787 -105.666 831.766 -105.666 814.055H-107.666ZM-107.666 809.427V814.055H-105.666V809.427H-107.666ZM-96.2849 763.294C-103.889 776.042 -107.666 791.435 -107.666 809.427H-105.666C-105.666 791.716 -101.95 776.695 -94.5672 764.318L-96.2849 763.294ZM-65.4716 734.157C-78.4226 740.856 -88.6978 750.574 -96.2849 763.294L-94.5672 764.318C-87.1678 751.914 -77.167 742.458 -64.5527 735.933L-65.4716 734.157ZM-21.7054 724.128C-37.717 724.128 -52.3099 727.465 -65.4654 734.154L-64.5589 735.937C-51.7084 729.402 -37.4301 726.128 -21.7054 726.128V724.128ZM19.0662 732.494C7.65933 726.903 -5.94238 724.128 -21.7054 724.128V726.128C-6.1731 726.128 7.11282 728.862 18.1859 734.29L19.0662 732.494ZM46.5515 755.627C39.6172 745.785 30.4483 738.074 19.0662 732.494L18.1859 734.29C29.2835 739.73 38.1865 747.226 44.9165 756.779L46.5515 755.627ZM60.6025 788.421C58.3723 776.155 53.6846 765.211 46.5363 755.606L44.9318 756.8C51.8884 766.148 56.4572 776.802 58.6348 788.779L60.6025 788.421ZM19.4956 798.173L59.8271 789.578L59.4102 787.622L19.0787 796.217L19.4956 798.173ZM12.4729 779.848C15.4859 785.013 17.4303 790.835 18.2959 797.327L20.2784 797.063C19.3809 790.332 17.3582 784.253 14.2004 778.84L12.4729 779.848ZM-0.360901 767.662C5.21777 770.666 9.48602 774.727 12.4729 779.848L14.2004 778.84C11.0163 773.381 6.46893 769.068 0.58728 765.901L-0.360901 767.662ZM-20.7137 763.153C-12.456 763.153 -5.69498 764.675 -0.375427 767.654L0.601807 765.909C-5.09811 762.717 -12.2217 761.153 -20.7137 761.153V763.153ZM-43.0433 768.65C-36.3695 764.99 -28.9334 763.153 -20.7137 763.153V761.153C-29.2437 761.153 -37.0145 763.063 -44.0049 766.896L-43.0433 768.65ZM-58.5143 784.451C-54.6305 777.33 -49.475 772.08 -43.0535 768.656L-43.9947 766.891C-50.7966 770.519 -56.2198 776.068 -60.2701 783.493L-58.5143 784.451ZM-64.0122 810.088C-64.0122 799.846 -62.1596 791.313 -58.5091 784.441L-60.2753 783.503C-64.1181 790.736 -66.0122 799.613 -66.0122 810.088H-64.0122ZM-64.0122 813.394V810.088H-66.0122V813.394H-64.0122ZM-58.5032 839.383C-62.1601 832.284 -64.0122 823.634 -64.0122 813.394H-66.0122C-66.0122 823.87 -64.1176 832.852 -60.2812 840.299L-58.5032 839.383ZM-43.0311 855.17C-49.4741 851.519 -54.6368 846.255 -58.5206 839.351L-60.2638 840.331C-56.2135 847.532 -50.7976 853.067 -44.0171 856.91L-43.0311 855.17ZM-20.7137 860.329C-28.9435 860.329 -36.3875 858.598 -43.0654 855.151L-43.9827 856.928C-36.9964 860.534 -29.2336 862.329 -20.7137 862.329V860.329ZM7.00958 851.035C0.868958 857.175 -8.31146 860.329 -20.7137 860.329V862.329C-7.99146 862.329 1.78174 859.091 8.42377 852.449L7.00958 851.035ZM19.2925 825.792C17.5585 836.196 13.4529 844.591 7.00958 851.035L8.42377 852.449C15.2039 845.669 19.4731 836.874 21.2653 826.121L19.2925 825.792ZM60.8416 834.57L20.5102 824.983L20.0477 826.929L60.3791 836.516L60.8416 834.57ZM46.5428 868.198C53.6718 858.396 58.6857 847.588 61.5816 835.781L59.6392 835.305C56.8049 846.86 51.9012 857.43 44.9253 867.022L46.5428 868.198ZM19.0662 890.988C30.4427 885.411 39.6102 877.814 46.5452 868.195L44.9228 867.025C38.1936 876.359 29.2891 883.749 18.1859 889.192L19.0662 890.988ZM-21.7054 899.355C-5.94238 899.355 7.65933 896.579 19.0662 890.988L18.1859 889.192C7.11282 894.62 -6.1731 897.355 -21.7054 897.355V899.355ZM-235.714 897.355C-247.281 897.355 -257.612 895.391 -266.726 891.485L-267.514 893.323C-258.115 897.351 -247.509 899.355 -235.714 899.355V897.355ZM-209.053 892.501C-215.471 895.71 -224.332 897.355 -235.714 897.355V899.355C-224.176 899.355 -214.965 897.693 -208.159 894.29L-209.053 892.501ZM-194.865 881.563C-197.826 885.581 -202.527 889.238 -209.053 892.501L-208.159 894.29C-201.462 890.941 -196.466 887.106 -193.255 882.749L-194.865 881.563ZM-189.059 871.261C-189.893 873.764 -191.808 877.195 -194.88 881.582L-193.241 882.729C-190.142 878.301 -188.09 874.679 -187.161 871.893L-189.059 871.261ZM-181.829 870.577H-188.11V872.577H-181.829V870.577ZM-180.829 871.908V871.577H-182.829V871.908H-180.829ZM-173.295 886.976C-178.332 883.198 -180.829 878.205 -180.829 871.908H-182.829C-182.829 878.834 -180.036 884.42 -174.495 888.576L-173.295 886.976ZM-153.729 892.726C-161.719 892.726 -168.216 890.785 -173.295 886.976L-174.495 888.576C-168.995 892.7 -162.048 894.726 -153.729 894.726V892.726ZM-125.96 892.726H-153.729V894.726H-125.96V892.726ZM-126.96 859.345V893.726H-124.96V859.345H-126.96ZM-139.183 860.345H-125.96V858.345H-139.183V860.345ZM-149.44 849.428C-149.44 852.871 -148.638 855.64 -146.857 857.548C-145.063 859.469 -142.441 860.345 -139.183 860.345V858.345C-142.096 858.345 -144.102 857.568 -145.394 856.184C-146.699 854.786 -147.44 852.596 -147.44 849.428H-149.44ZM-149.44 788.27V849.428H-147.44V788.27H-149.44ZM-167.935 742.085C-155.645 752.65 -149.44 767.99 -149.44 788.27H-147.44C-147.44 767.557 -153.797 751.601 -166.631 740.568L-167.935 742.085ZM-218.524 726.128C-197.091 726.128 -180.267 731.484 -167.935 742.085L-166.631 740.568C-179.424 729.571 -196.76 724.128 -218.524 724.128V726.128ZM-254.151 732.653C-244.394 728.317 -232.529 726.128 -218.524 726.128V724.128C-232.729 724.128 -244.886 726.347 -254.964 730.826L-254.151 732.653ZM-277.265 749.244C-271.428 742.326 -263.737 736.792 -254.161 732.657L-254.954 730.821C-264.773 735.061 -272.73 740.768 -278.793 747.954L-277.265 749.244ZM-289.638 771.711C-287.033 763.463 -282.91 755.975 -277.263 749.242L-278.795 747.957C-284.608 754.888 -288.86 762.607 -291.545 771.109L-289.638 771.711ZM-251.925 783.355L-290.273 770.462L-290.91 772.358L-252.562 785.25L-251.925 783.355ZM-243 765.382C-248.243 770.168 -251.643 776.426 -253.223 784.101L-251.264 784.504C-249.759 777.193 -246.547 771.329 -241.652 766.859L-243 765.382ZM-219.185 757.847C-229.68 757.847 -237.69 760.302 -243.017 765.398L-241.635 766.843C-236.824 762.241 -229.407 759.847 -219.185 759.847V757.847ZM-195.321 765.76C-200.436 760.412 -208.471 757.847 -219.185 757.847V759.847C-208.741 759.847 -201.349 762.352 -196.767 767.142L-195.321 765.76ZM-187.771 785.294C-187.771 777.352 -190.277 770.804 -195.337 765.744L-196.751 767.158C-192.114 771.795 -189.771 777.81 -189.771 785.294H-187.771ZM-187.771 794.551V785.294H-189.771V794.551H-187.771ZM-233.731 795.551H-188.771V793.551H-233.731V795.551ZM-266.411 801.427C-256.853 797.517 -245.965 795.551 -233.731 795.551V793.551C-246.18 793.551 -257.331 795.552 -267.168 799.576L-266.411 801.427ZM-288.455 818.273C-283.066 810.728 -275.733 805.112 -266.422 801.431L-267.157 799.571C-276.799 803.383 -284.453 809.228 -290.083 817.11L-288.455 818.273ZM-296.203 845.791C-296.203 834.711 -293.598 825.558 -288.452 818.268L-290.086 817.115C-295.519 824.812 -298.203 834.392 -298.203 845.791H-296.203ZM-288.437 873.998C-293.598 866.255 -296.203 856.87 -296.203 845.791H-298.203C-298.203 857.193 -295.518 866.981 -290.101 875.107L-288.437 873.998ZM-266.708 891.493C-275.815 887.373 -283.055 881.531 -288.455 873.971L-290.083 875.134C-284.463 883.001 -276.937 889.06 -267.532 893.315L-266.708 891.493ZM-228.441 865.635C-216.57 865.635 -206.842 862.382 -199.351 855.799L-200.671 854.297C-207.725 860.496 -216.951 863.635 -228.441 863.635V865.635ZM-249.236 859.792C-244.362 863.738 -237.38 865.635 -228.441 865.635V863.635C-237.134 863.635 -243.596 861.785 -247.978 858.238L-249.236 859.792ZM-256.549 844.469C-256.549 850.722 -254.099 855.856 -249.236 859.792L-247.978 858.238C-252.372 854.681 -254.549 850.118 -254.549 844.469H-256.549ZM-249.538 829.784C-254.22 833.296 -256.549 838.233 -256.549 844.469H-254.549C-254.549 838.804 -252.471 834.485 -248.338 831.384L-249.538 829.784ZM-230.755 824.626C-238.601 824.626 -244.9 826.306 -249.538 829.784L-248.338 831.384C-244.16 828.251 -238.337 826.626 -230.755 826.626V824.626ZM-188.771 824.626H-230.755V826.626H-188.771V824.626ZM-187.771 828.932V825.626H-189.771V828.932H-187.771ZM-199.349 855.798C-191.622 848.98 -187.771 839.992 -187.771 828.932H-189.771C-189.771 839.47 -193.413 847.893 -200.673 854.298L-199.349 855.798Z" fill="white" mask="url(#path-4-outside-1_601_287)"/>
</g>
</g>
<defs>
<filter id="filter0_f_601_287" x="-561.489" y="-279.941" width="1446.19" height="1014.65" filterUnits="userSpaceOnUse" color-interpolation-filters="sRGB">
<feFlood flood-opacity="0" result="BackgroundImageFix"/>
<feBlend mode="normal" in="SourceGraphic" in2="BackgroundImageFix" result="shape"/>
<feGaussianBlur stdDeviation="50" result="effect1_foregroundBlur_601_287"/>
</filter>
<filter id="filter1_f_601_287" x="374.771" y="-184.975" width="1408.25" height="1102.08" filterUnits="userSpaceOnUse" color-interpolation-filters="sRGB">
<feFlood flood-opacity="0" result="BackgroundImageFix"/>
<feBlend mode="normal" in="SourceGraphic" in2="BackgroundImageFix" result="shape"/>
<feGaussianBlur stdDeviation="50" result="effect1_foregroundBlur_601_287"/>
</filter>
<filter id="filter2_f_601_287" x="-72.2734" y="366.713" width="1446.19" height="1014.65" filterUnits="userSpaceOnUse" color-interpolation-filters="sRGB">
<feFlood flood-opacity="0" result="BackgroundImageFix"/>
<feBlend mode="normal" in="SourceGraphic" in2="BackgroundImageFix" result="shape"/>
<feGaussianBlur stdDeviation="50" result="effect1_foregroundBlur_601_287"/>
</filter>
<radialGradient id="paint0_radial_601_287" cx="0" cy="0" r="1" gradientUnits="userSpaceOnUse" gradientTransform="translate(149.719 -0.286977) rotate(-75) scale(635)">
<stop stop-color="#FD71AE"/>
<stop offset="1" stop-color="#FD71AE" stop-opacity="0"/>
</radialGradient>
<radialGradient id="paint1_radial_601_287" cx="0" cy="0" r="1" gradientUnits="userSpaceOnUse" gradientTransform="translate(1048.03 550.025) rotate(135) scale(635)">
<stop stop-color="#FFD436"/>
<stop offset="1" stop-color="#FFC801" stop-opacity="0"/>
</radialGradient>
<radialGradient id="paint2_radial_601_287" cx="0" cy="0" r="1" gradientUnits="userSpaceOnUse" gradientTransform="translate(662.713 1101.71) rotate(105) scale(635)">
<stop stop-color="#49CCFA"/>
<stop offset="1" stop-color="#49CCFA" stop-opacity="0"/>
</radialGradient>
<clipPath id="clip0_601_287">
<rect width="1440" height="960" fill="white"/>
</clipPath>
<clipPath id="clip1_601_287">
<rect width="1440" height="302.156" fill="white" transform="translate(0 658)"/>
</clipPath>
</defs>
</svg>
